<svg width="174" height="56" viewBox="0 0 174 56" fill="none" xmlns="http://www.w3.org/2000/svg">
<rect width="174" height="56" fill="#E5E5E5"/>
<rect x="0.398758" y="0.281067" width="173" height="55" rx="10" fill="#503BCE"/>
<rect x="0.398758" y="0.281067" width="173" height="55" rx="10" fill="url(#paint0_linear)"/>
<path d="M53.5352 36.7656C52.5859 37.9023 51.2441 38.7871 49.5098 39.4199C47.7754 40.041 45.8535 40.3516 43.7441 40.3516C41.5293 40.3516 39.584 39.8711 37.9082 38.9102C36.2441 37.9375 34.9551 36.5312 34.041 34.6914C33.1387 32.8516 32.6758 30.6895 32.6523 28.2051V26.4648C32.6523 23.9102 33.0801 21.7012 33.9355 19.8379C34.8027 17.9629 36.0449 16.5332 37.6621 15.5488C39.291 14.5527 41.1953 14.0547 43.375 14.0547C46.4102 14.0547 48.7832 14.7812 50.4941 16.2344C52.2051 17.6758 53.2188 19.7793 53.5352 22.5449H48.4023C48.168 21.0801 47.6465 20.0078 46.8379 19.3281C46.041 18.6484 44.9395 18.3086 43.5332 18.3086C41.7402 18.3086 40.375 18.9824 39.4375 20.3301C38.5 21.6777 38.0254 23.6816 38.0137 26.3418V27.9766C38.0137 30.6602 38.5234 32.6875 39.543 34.0586C40.5625 35.4297 42.0566 36.1152 44.0254 36.1152C46.0059 36.1152 47.418 35.6934 48.2617 34.8496V30.4375H43.4629V26.5527H53.5352V36.7656ZM56.6992 30.3145C56.6992 28.4277 57.0625 26.7461 57.7891 25.2695C58.5156 23.793 59.5586 22.6504 60.918 21.8418C62.2891 21.0332 63.877 20.6289 65.6816 20.6289C68.248 20.6289 70.3398 21.4141 71.957 22.9844C73.5859 24.5547 74.4941 26.6875 74.6816 29.3828L74.7168 30.6836C74.7168 33.6016 73.9023 35.9453 72.2734 37.7148C70.6445 39.4727 68.459 40.3516 65.7168 40.3516C62.9746 40.3516 60.7832 39.4727 59.1426 37.7148C57.5137 35.957 56.6992 33.5664 56.6992 30.543V30.3145ZM61.7793 30.6836C61.7793 32.4883 62.1191 33.8711 62.7988 34.832C63.4785 35.7812 64.4512 36.2559 65.7168 36.2559C66.9473 36.2559 67.9082 35.7871 68.5996 34.8496C69.291 33.9004 69.6367 32.3887 69.6367 30.3145C69.6367 28.5449 69.291 27.1738 68.5996 26.2012C67.9082 25.2285 66.9355 24.7422 65.6816 24.7422C64.4395 24.7422 63.4785 25.2285 62.7988 26.2012C62.1191 27.1621 61.7793 28.6562 61.7793 30.6836ZM92.418 35.7637H103.615V40H87.1445V14.4062H92.418V35.7637ZM111.684 40H106.586V20.9805H111.684V40ZM106.287 16.0586C106.287 15.2969 106.539 14.6699 107.043 14.1777C107.559 13.6855 108.256 13.4395 109.135 13.4395C110.002 13.4395 110.693 13.6855 111.209 14.1777C111.725 14.6699 111.982 15.2969 111.982 16.0586C111.982 16.832 111.719 17.4648 111.191 17.957C110.676 18.4492 109.99 18.6953 109.135 18.6953C108.279 18.6953 107.588 18.4492 107.061 17.957C106.545 17.4648 106.287 16.832 106.287 16.0586ZM123.004 33.7949L126.537 20.9805H131.846L125.43 40H120.578L114.162 20.9805H119.471L123.004 33.7949ZM142.604 40.3516C139.814 40.3516 137.541 39.4961 135.783 37.7852C134.037 36.0742 133.164 33.7949 133.164 30.9473V30.4551C133.164 28.5449 133.533 26.8398 134.271 25.3398C135.01 23.8281 136.053 22.668 137.4 21.8594C138.76 21.0391 140.307 20.6289 142.041 20.6289C144.643 20.6289 146.688 21.4492 148.176 23.0898C149.676 24.7305 150.426 27.0566 150.426 30.0684V32.1426H138.314C138.479 33.3848 138.971 34.3809 139.791 35.1309C140.623 35.8809 141.672 36.2559 142.938 36.2559C144.895 36.2559 146.424 35.5469 147.525 34.1289L150.021 36.9238C149.26 38.002 148.229 38.8457 146.928 39.4551C145.627 40.0527 144.186 40.3516 142.604 40.3516ZM142.023 24.7422C141.016 24.7422 140.195 25.082 139.562 25.7617C138.941 26.4414 138.543 27.4141 138.367 28.6797H145.434V28.2754C145.41 27.1504 145.105 26.2832 144.52 25.6738C143.934 25.0527 143.102 24.7422 142.023 24.7422Z" fill="white"/>
<defs>
<linearGradient id="paint0_linear" x1="5.39876" y1="6.28107" x2="162.399" y2="55.2811" gradientUnits="userSpaceOnUse">
<stop stop-color="#FF00F5" stop-opacity="0.78"/>
<stop offset="0.932292" stop-color="#FF002E"/>
</linearGradient>
</defs>
</svg>
